<svg aria-hidden="true" style="width:0;height:0;position:absolute;overflow:hidden" xmlns="http://www.w3.org/2000/svg"><defs><symbol id="icon-close" viewBox="0 0 32 32"><path d="M23.733 10.304 22.229 8.8l-5.963 5.963L10.303 8.8l-1.504 1.504 5.963 5.963-5.963 5.963 1.504 1.504 5.963-5.963 5.963 5.963 1.504-1.504-5.963-5.963 5.963-5.963z"/><symbol id="icon-heart" viewBox="0 0 34 32"><path d="m17.231 31.705-2.412-2.412C5.859 21.367.001 16.025.001 9.478.001 4.136 4.136.001 9.478.001c2.929 0 5.858 1.378 7.754 3.618 1.895-2.24 4.825-3.618 7.754-3.618 5.342 0 9.477 4.135 9.477 9.477 0 6.548-5.858 11.889-14.818 19.815l-2.412 2.412z"/></symbol><symbol id="icon-logo" viewBox="0 0 32 32"><path fill="none" stroke="#818181" stroke-width="2.667" stroke-linecap="round" stroke-linejoin="round" style="stroke:var(--color1,#fff)" d="M26.667 2.667H5.334L2.667 5.334v21.333l2.667 2.667h21.333l2.667-2.667V5.334l-2.667-2.667zm-17.334 0v26.667M22.667 2.667v26.667M2.667 16h26.667M2.667 9.333h6.667M2.667 22.667h6.667m13.333 0h6.667M22.667 9.333h6.667"/></symbol><symbol id="icon-search" viewBox="0 0 32 32"><path fill="none" stroke="#fff" stroke-width="2.667" stroke-linecap="round" stroke-linejoin="round" style="stroke:var(--color2,#fff)" d="M16 26.667c5.891 0 10.667-4.776 10.667-10.667S21.891 5.333 16 5.333v0C10.109 5.333 5.333 10.109 5.333 16S10.109 26.667 16 26.667v0zm13.333 2.666-8-8"/></symbol><symbol id="icon-scroll" viewBox="0 0 32 32"><path d="M31.674 21.902 16.735 6.963c-.225-.225-.449-.337-.786-.337s-.449.112-.674.337L.336 21.902A1.01 1.01 0 0 0 0 22.69v-.002c0 .225.112.562.337.674l1.572 1.685c.186.207.455.337.754.337l.034-.001h-.002l.674-.337 12.58-12.692 12.692 12.692c.168.189.405.314.67.337h.004c.337 0 .562-.112.786-.337l1.572-1.685c.189-.168.314-.405.337-.67v-.004c0-.337-.112-.562-.337-.786z"/></symbol><symbol id="icon-github-logo" viewBox="0 0 32 32"><path d="M29.854 8.36c-1.431-2.451-3.371-4.392-5.823-5.823S18.903.391 16 .391c-2.903 0-5.58.715-8.031 2.146S3.577 5.908 2.146 8.36C.715 10.811 0 13.488 0 16.391c0 3.486 1.017 6.621 3.052 9.406s4.663 4.712 7.885 5.781c.375.07.653.021.833-.146s.271-.375.271-.625l-.011-1.125c-.007-.709-.011-1.326-.011-1.854l-.479.083c-.306.056-.691.08-1.156.073s-.948-.055-1.448-.146c-.5-.09-.965-.298-1.396-.625s-.736-.754-.916-1.281l-.208-.479c-.139-.319-.357-.674-.656-1.062s-.601-.653-.906-.792l-.146-.104c-.097-.069-.187-.153-.271-.25s-.146-.194-.187-.292c-.042-.097-.007-.177.104-.24s.312-.093.604-.093l.417.062c.278.056.621.222 1.031.5s.746.639 1.01 1.083c.32.57.705 1.004 1.156 1.302s.906.448 1.364.448.854-.035 1.187-.104c.333-.069.646-.174.937-.313.125-.931.465-1.646 1.021-2.146-.792-.083-1.503-.208-2.135-.375s-1.285-.438-1.958-.813c-.674-.375-1.233-.84-1.677-1.396s-.809-1.285-1.094-2.188c-.285-.903-.427-1.944-.427-3.125 0-1.681.549-3.111 1.646-4.292-.514-1.264-.465-2.68.146-4.25.403-.125 1-.031 1.792.281s1.371.58 1.74.802c.368.222.663.41.885.562 1.292-.361 2.625-.541 4-.541s2.708.181 4 .541l.792-.5c.541-.333 1.181-.639 1.916-.917s1.299-.354 1.688-.229c.625 1.569.68 2.986.166 4.25 1.097 1.181 1.646 2.611 1.646 4.292 0 1.18-.143 2.225-.427 3.135s-.652 1.639-1.104 2.188c-.452.549-1.014 1.011-1.688 1.385s-1.327.646-1.958.813c-.632.167-1.344.292-2.135.375.722.625 1.083 1.611 1.083 2.958v4.395c0 .25.087.458.261.625s.448.215.823.146c3.222-1.069 5.851-2.996 7.886-5.781S32 19.873 32 16.387c-.001-2.902-.716-5.579-2.146-8.03z"/></symbol><symbol id="icon-day" viewBox="0 0 32 32"><path d="M4 15H1a1 1 0 0 0 0 2h3a1 1 0 0 0 0-2zM16 5a1 1 0 0 0 1-1V1a1 1 0 0 0-2 0v3a1 1 0 0 0 1 1zm9.621 2.78 2.101-2.101a.99.99 0 1 0-1.401-1.401L24.22 6.379a.99.99 0 1 0 1.401 1.401zM7.41 23.19l-2.101 2.101a.99.99 0 1 0 1.401 1.401l2.101-2.101A.99.99 0 1 0 7.41 23.19zM6.808 8.222a.999.999 0 1 0 1.414-1.414L6.101 4.686A.999.999 0 1 0 4.687 6.1l2.121 2.122zM16 27a1 1 0 0 0-1 1v3a1 1 0 0 0 2 0v-3a1 1 0 0 0-1-1zm9.192-3.222a.999.999 0 1 0-1.414 1.414l2.121 2.121a.999.999 0 1 0 1.414-1.414l-2.121-2.121zM31 15h-3a1 1 0 0 0 0 2h3a1 1 0 0 0 0-2zM16 6.994c-4.974 0-9.006 4.032-9.006 9.006s4.032 9.006 9.006 9.006 9.006-4.032 9.006-9.006S20.974 6.994 16 6.994zm0 16.004a6.998 6.998 0 1 1 0-13.996 6.998 6.998 0 0 1 0 13.996z"/></symbol><symbol id="icon-night" viewBox="0 0 32 32"><path d="M29.687 23.476a13.46 13.46 0 0 1-3.307.413c-6.07 0-11.42-4.096-13.01-9.961-1.238-4.571-.034-9.358 3.223-12.805L17.654 0 16.11.066a16.078 16.078 0 0 0-3.503.54C4.107 2.912-.934 11.702 1.37 20.203c1.883 6.946 8.218 11.796 15.407 11.796a16.04 16.04 0 0 0 4.188-.56 15.92 15.92 0 0 0 9.408-7.026l.813-1.316-1.5.379zm-9.05 6.755a14.787 14.787 0 0 1-3.86.516c-6.624 0-12.462-4.47-14.197-10.871C.457 12.042 5.101 3.942 12.935 1.819a14.529 14.529 0 0 1 1.727-.357c-2.781 3.635-3.718 8.311-2.502 12.796 1.737 6.41 7.586 10.886 14.22 10.886.692 0 1.384-.05 2.072-.147a14.67 14.67 0 0 1-7.815 5.235zM17.435 8.098l3.074-.873.94-3.052.874 3.072 3.054.941-3.074.874-.94 3.053-.873-3.072-3.053-.942zm6.684 5.261 2.137-.699.575-2.172.699 2.135 2.173.578-2.136.698-.577 2.172-.698-2.135-2.173-.577z"/></symbol><symbol id="icon-arrow-up" viewBox="0 0 32 32"><path d="M16 1 1 16h9v16h12V16h9z"/></symbol></symbol></defs></svg>